<svg xmlns="http://www.w3.org/2000/svg">
    <symbol id="refresh" viewBox="0 0 29 25">
        <path fill-rule="evenodd" clip-rule="evenodd" d="M12.5 0C10.43 0 7.3694 0.604562 4.76889 2.47693C2.0664 4.42273 0 7.64816 0 12.5C0 17.3518 2.0664 20.5773 4.76889 22.5231C7.3694 24.3954 10.43 25 12.5 25C14.57 25 17.6306 24.3954 20.2311 22.5231C22.2804 21.0476 23.9639 18.8363 24.658 15.738L28.5 16L23.7 7C21.8333 9.45455 17.78 14.5273 16.5 15.1818L20.5987 15.4613C20.058 17.2599 19.0312 18.4581 17.8939 19.2769C16.1194 20.5546 13.93 21 12.5 21C11.07 21 8.8806 20.5546 7.10611 19.2769C5.4336 18.0727 4 16.0482 4 12.5C4 8.95184 5.4336 6.92727 7.10611 5.72307C8.8806 4.44544 11.07 4 12.5 4V0Z"/>
    </symbol>
    <symbol id="plus" viewBox="0 0 26 26">
        <path fill-rule="evenodd" clip-rule="evenodd" d="M15 11V0H11V11H0V15H11V26H15V15H26V11H15Z"/>
    </symbol>
</svg>